Simulation
nRows=23
nColumns=15
endheader
time  TH_x TH_y TH_z SC_y  SC_z  SC_x  AC_y  AC_z  AC_x  GH_y  GH_z  GH_yy  EL_x  PS_y
5.382082397003745  0.000000  0.000000  0.000000  -35.145454479667734  8.854243171332005  13.104339401053155  54.05686206233903  19.045729857424003  7.424831748945799  5.591699092488346  66.3049286015711  -5.16404910927112  13.450796766871086  120.000000
5.422247191011236  0.000000  0.000000  0.000000  -35.1184293022775  8.766453666404407  13.352699798127617  54.15038455815659  18.740895692955853  7.054708797163319  5.707370352276434  66.44693561475677  -5.378400847127221  13.473496999178181  120.000000
5.4624119850187265  0.000000  0.000000  0.000000  -35.00221890583221  8.655972304765658  13.374784255517067  54.267193970290165  18.41522858455083  6.6441148078503485  5.871700555021094  66.42302039938872  -5.502825281149802  13.415733426569066  120.000000
5.502576779026217  0.000000  0.000000  0.000000  -34.79746600757191  8.519231114441897  13.162261070472212  54.407306834718945  18.063677542850105  6.197606411484964  6.084830566447655  66.21635561150669  -5.542261896973549  13.293264533287413  120.000000
5.542741573033708  0.000000  0.000000  0.000000  -34.50832299322566  8.350280602276674  12.710939388873204  54.56837771771884  17.680923149825933  5.7237455318374595  6.346531207216381  65.81085004309105  -5.503938286913751  13.128126637991695  120.000000
5.582906367041199  0.000000  0.000000  0.000000  -34.143058479007266  8.141243160737488  12.021297228339543  54.74450991261525  17.262179949944645  5.23502303948895  6.65671243611901  65.1929844661101  -5.3949976201755465  12.944598419196996  120.000000
5.623071161048689  0.000000  0.000000  0.000000  -33.714271212584045  7.883313735046017  11.099209311481987  54.92570511458769  16.80423748415487  4.747252651424604  7.015881311336025  64.353345150436  -5.220191304313029  12.76506414274435  120.000000
5.66323595505618  0.000000  0.000000  0.000000  -33.23835188699474  7.5677514811591164  9.956774150326693  55.09805421741293  16.306618157148737  4.278798109194182  7.425368069195633  63.28796289497636  -4.980295065862899  12.606650766769775  120.000000
5.70340074906367  0.000000  0.000000  0.000000  -32.73469655471647  7.187866568699516  8.612863573385985  55.24487104494526  15.772897852305125  3.848805533848829  7.886825073518958  61.99868184160825  -4.671442146074984  12.479310434029072  120.000000
5.743565543071161  0.000000  0.000000  0.000000  -32.22401810915703  6.740817248602437  7.093079484690503  55.34872580915637  15.211391115332301  3.474819603970135  8.401405778347726  60.49239202726572  -4.285614966143156  12.385650787743412  120.000000
5.7837303370786515  0.000000  0.000000  0.000000  -31.725916433376568  6.22822726556016  5.428916942209995  55.39376781214433  14.63442334533816  3.1710386773404684  8.969586321717316  58.77942475297904  -3.812290559987993  12.322290232765036  120.000000
5.823895131086142  0.000000  0.000000  0.000000  -31.2565048232006  5.656751210953778  3.656135518725423  55.36784275629208  14.057113352983714  2.9468555925838773  9.591194764496045  56.87150528652589  -3.240522521253918  12.28190419472653  120.000000
5.864059925093633  0.000000  0.000000  0.000000  -30.82665184708811  5.037937896171012  1.813213682623452  55.263960254082335  13.496092044397486  2.805922919759927  10.265462600989077  54.78033696306584  -2.56104786971843  12.255365183236687  120.000000
5.904224719101124  0.000000  0.000000  0.000000  -30.440897117891122  4.3876215491016275  -0.059991804974193735  55.080797800152716  12.96835315893455  2.7462970978831636  10.991292380636725  52.51665401758189  -1.7680486005061438  12.233609396815941  120.000000
5.944389513108614  0.000000  0.000000  0.000000  -30.097333720354353  3.7248579854347756  -1.9234661003857882  54.822624883479016  12.490276710133827  2.760967320624481  11.767697042138137  50.09022334398547  -0.8604604634725354  12.209103714207709  120.000000
5.984554307116105  0.000000  0.000000  0.000000  -29.78851854274147  3.070701531318723  -3.738011382584114  54.49850780101969  12.076840190962791  2.8390345261086485  12.594418425081907  47.51034341701228  0.15737037617700586  12.176784047650951  120.000000
6.024719101123596  0.000000  0.000000  0.000000  -29.50350088439494  2.446834764326827  -5.466227897875986  54.12126252817197  11.7408603186307  2.9670112738636694  13.472707154278202  44.78735732108114  1.2752670061044526  12.134632972078343  120.000000
6.064883895131086  0.000000  0.000000  0.000000  -29.2309939392429  1.874512688252689  -7.073388641412135  53.706017602709075  11.492368152919443  3.1305155923884764  14.406532238879109  41.93483701659481  2.477026573638098  12.084178390100993  120.000000
6.1050486891385765  0.000000  0.000000  0.000000  -28.963030850643474  1.3738647128738577  -8.528576531338475  53.268640324392656  11.338238389877644  3.3155238164755194  15.403267264476655  38.9724420417948  3.740411254559769  12.030250792303583  120.000000
6.145213483146067  0.000000  0.000000  0.000000  -28.699098086418456  0.9635907047474643  -9.805568183025597  52.82402512123991  11.281357941242884  3.5089641697012546  16.47407271544032  35.92803956275885  5.037617140091545  11.980622206126872  120.000000
6.185378277153558  0.000000  0.000000  0.000000  -28.44730337536789  0.6600662251056478  -10.884252748191761  52.385932297797524  11.320317514101733  3.699700604384965  17.636585424089027  32.838647589396984  6.333953940448055  11.94551857583432  120.000000
6.225543071161049  0.000000  0.000000  0.000000  -28.222258235862025  0.47403469061072484  -11.75041638797852  51.9678953274979  11.449321658534465  3.880082622337342  18.920884081258738  29.74934429133514  7.583293880380204  11.93716090133273  120.000000
6.265707865168539  0.000000  0.000000  0.000000  -28.041981583667607  0.4090488025292767  -12.395563528119515  51.58401155729818  11.656591946109476  4.045251119807157  20.373897484390067  26.708087136140232  8.724328449127759  11.96936481047576  120.000000
